<svg xmlns="http://www.w3.org/2000/svg" viewBox="0 0 1000 1000"><g stroke="#7a7a7a" stroke-width="34" stroke-linecap="round"><line x1="500.0" y1="970.0" x2="167.7" y2="832.3"/><line x1="500.0" y1="970.0" x2="362.3" y2="637.7"/><line x1="500.0" y1="970.0" x2="637.7" y2="637.7"/><line x1="500.0" y1="970.0" x2="832.3" y2="832.3"/><line x1="167.7" y1="832.3" x2="30.0" y2="500.0"/><line x1="167.7" y1="832.3" x2="305.3" y2="500.0"/><line x1="167.7" y1="832.3" x2="500.0" y2="694.7"/><line x1="362.3" y1="637.7" x2="30.0" y2="500.0"/><line x1="362.3" y1="637.7" x2="500.0" y2="305.3"/><line x1="362.3" y1="637.7" x2="694.7" y2="500.0"/><line x1="30.0" y1="500.0" x2="167.7" y2="167.7"/><line x1="30.0" y1="500.0" x2="362.3" y2="362.3"/><line x1="637.7" y1="637.7" x2="305.3" y2="500.0"/><line x1="637.7" y1="637.7" x2="500.0" y2="305.3"/><line x1="637.7" y1="637.7" x2="970.0" y2="500.0"/><line x1="305.3" y1="500.0" x2="167.7" y2="167.7"/><line x1="305.3" y1="500.0" x2="637.7" y2="362.3"/><line x1="500.0" y1="305.3" x2="167.7" y2="167.7"/><line x1="500.0" y1="305.3" x2="832.3" y2="167.7"/><line x1="167.7" y1="167.7" x2="500.0" y2="30.0"/><line x1="832.3" y1="832.3" x2="500.0" y2="694.7"/><line x1="832.3" y1="832.3" x2="694.7" y2="500.0"/><line x1="832.3" y1="832.3" x2="970.0" y2="500.0"/><line x1="500.0" y1="694.7" x2="362.3" y2="362.3"/><line x1="500.0" y1="694.7" x2="637.7" y2="362.3"/><line x1="694.7" y1="500.0" x2="362.3" y2="362.3"/><line x1="694.7" y1="500.0" x2="832.3" y2="167.7"/><line x1="362.3" y1="362.3" x2="500.0" y2="30.0"/><line x1="970.0" y1="500.0" x2="637.7" y2="362.3"/><line x1="970.0" y1="500.0" x2="832.3" y2="167.7"/><line x1="637.7" y1="362.3" x2="500.0" y2="30.0"/><line x1="832.3" y1="167.7" x2="500.0" y2="30.0"/></g></svg>